<?xml version="1.0" encoding="UTF-8"?>
<!DOCTYPE svg PUBLIC "-//W3C//DTD SVG 1.1//EN" "http://www.w3.org/Graphics/SVG/1.1/DTD/svg11.dtd">
<!-- Creator: CorelDRAW X7 -->
<svg xmlns="http://www.w3.org/2000/svg" xml:space="preserve" width="210mm" height="297mm" version="1.1" style="shape-rendering:geometricPrecision; text-rendering:geometricPrecision; image-rendering:optimizeQuality; fill-rule:evenodd; clip-rule:evenodd"
viewBox="0 0 21000 29700"
 xmlns:xlink="http://www.w3.org/1999/xlink">
 <defs>
  <style type="text/css">
   <![CDATA[
    .fil0 {fill:#161614}
   ]]>
  </style>
 </defs>
 <g id="Слой_x0020_1">
  <metadata id="CorelCorpID_0Corel-Layer"/>
  <g id="_2261150064528">
   <path class="fil0" d="M1344 918c-79,0 -144,66 -144,148 0,65 42,121 99,140 7,1 10,-3 10,-7 0,-4 0,-15 -1,-28 -40,9 -48,-17 -48,-17 -7,-17 -16,-22 -16,-22 -13,-9 1,-9 1,-9 14,2 22,16 22,16 13,22 34,16 42,12 1,-10 5,-16 9,-20 -32,-4 -66,-16 -66,-73 0,-16 6,-29 15,-39 -1,-4 -6,-19 2,-39 0,0 12,-4 39,15 12,-4 24,-5 36,-5 13,0 25,1 36,5 28,-19 40,-15 40,-15 8,20 3,35 1,39 10,10 15,23 15,39 0,57 -34,69 -66,73 6,5 10,14 10,27 0,20 0,36 0,41 0,4 3,8 10,7 57,-20 98,-75 98,-140 0,-82 -64,-148 -144,-148zm-90 211c0,0 -1,1 -2,0 -1,0 -2,-1 -1,-2 0,-1 1,-1 2,-1 1,1 2,2 1,3zm7 6c0,1 -2,0 -3,-1 -1,-1 -1,-2 0,-3 1,0 2,0 3,1 1,1 1,2 0,3zm5 8c-1,1 -2,0 -3,-1 -1,-1 -1,-3 0,-3 1,-1 2,0 3,1 1,1 1,3 0,3zm8 10c0,1 -2,1 -3,-1 -2,-1 -2,-2 -1,-3 1,-1 2,-1 4,0 1,1 1,3 0,4zm11 3c0,1 -2,2 -4,1 -1,0 -2,-1 -2,-3 0,-1 2,-1 4,-1 1,1 2,2 2,3zm12 2c0,1 -1,2 -3,2 -2,0 -3,-1 -3,-2 0,-2 1,-3 3,-3 2,0 3,1 3,3zm12 -1c0,1 -1,3 -3,3 -1,0 -3,-1 -3,-2 0,-1 1,-2 3,-2 1,-1 3,0 3,1z"/>
  </g>
 </g>
</svg>
